<?xml version="1.0" encoding="UTF-8" standalone="no"?>
<!-- Created with square_nine's Min Hero level editor (https://github.com/square-nine/min-hero-level-editor) -->

<svg
   width="185.2mm"
   height="210.63mm"
   viewBox="0 0 210 297"
   version="1.1"
   id="svg1"
   xml:space="preserve"
   xmlns:xlink="http://www.w3.org/1999/xlink"
   xmlns="http://www.w3.org/2000/svg"
   xmlns:svg="http://www.w3.org/2000/svg"><defs
     id="defs1" /><g
     id="layer3"><image
       width="26.45833"
       height="13.229165"
       preserveAspectRatio="none"
       xlink:href="collRect.png"
       id="image1-1"
       transform="rotate(0.0,0.07937,90.30229)"
       x="0.07937"
       y="90.30229"
 /><image
       width="8.69173"
       height="146.042625"
       preserveAspectRatio="none"
       xlink:href="collRect.png"
       id="image1-2"
       transform="rotate(0.0,131.31271,48.20708)"
       x="131.31271"
       y="48.20708"
 /><image
       width="8.69173"
       height="146.042625"
       preserveAspectRatio="none"
       xlink:href="collRect.png"
       id="image1-3"
       transform="rotate(0.0,45.61417,49.00083)"
       x="45.61417"
       y="49.00083"
 /><image
       width="30.4253"
       height="13.229165"
       preserveAspectRatio="none"
       xlink:href="collRect.png"
       id="image1-4"
       transform="rotate(0.0,105.62167,37.17396)"
       x="105.62167"
       y="37.17396"
 /><image
       width="30.4253"
       height="13.229165"
       preserveAspectRatio="none"
       xlink:href="collRect.png"
       id="image1-5"
       transform="rotate(0.0,48.97437,35.77167)"
       x="48.97437"
       y="35.77167"
 /><image
       width="30.4253"
       height="13.229165"
       preserveAspectRatio="none"
       xlink:href="collRect.png"
       id="image1-6"
       transform="rotate(0.0,105.01312,192.14042)"
       x="105.01312"
       y="192.14042"
 /><image
       width="30.4253"
       height="13.229165"
       preserveAspectRatio="none"
       xlink:href="collRect.png"
       id="image1-7"
       transform="rotate(0.0,48.36583,192.85479)"
       x="48.36583"
       y="192.85479"
 /><image
       width="12.7883"
       height="13.229165"
       preserveAspectRatio="none"
       xlink:href="collRect.png"
       id="image1-8"
       transform="rotate(0.0,112.47437,40.42833)"
       x="112.47437"
       y="40.42833"
 /><image
       width="12.7883"
       height="13.229165"
       preserveAspectRatio="none"
       xlink:href="collRect.png"
       id="image1-9"
       transform="rotate(0.0,57.28229,39.47583)"
       x="57.28229"
       y="39.47583"
 /><image
       width="28.5541337"
       height="8.4004533"
       preserveAspectRatio="none"
       xlink:href="roomTransitionObject1.png"
       id="image1-10"
       transform="rotate(0.0,77.23187,193.46333)"
       x="77.23187"
       y="193.46333"
 /><image
       width="10.583332"
       height="10.583332"
       preserveAspectRatio="none"
       xlink:href="entryObject1.png"
       id="image1-11"
       transform="rotate(0.0,85.96312,178.62021)"
       x="85.96312"
       y="178.62021"
 /><image
       width="28.88389"
       height="3.98373"
       preserveAspectRatio="none"
       xlink:href="collRect.png"
       id="image1-12"
       transform="rotate(0.0,54.39833,52.94312)"
       x="54.39833"
       y="52.94312"
 /><image
       width="14.86343"
       height="6.892345"
       preserveAspectRatio="none"
       xlink:href="collRect.png"
       id="image1-13"
       transform="rotate(0.0,116.78708,116.54896)"
       x="116.78708"
       y="116.54896"
 /><image
       width="20.41219"
       height="3.453035"
       preserveAspectRatio="none"
       xlink:href="collRect.png"
       id="image1-14"
       transform="rotate(0.0,110.88687,112.65958)"
       x="110.88687"
       y="112.65958"
 /><image
       width="11.96673"
       height="6.367305"
       preserveAspectRatio="none"
       xlink:href="collRect.png"
       id="image1-15"
       transform="rotate(0.0,57.01771,181.58354)"
       x="57.01771"
       y="181.58354"
 /><image
       width="10.583332"
       height="10.583332"
       preserveAspectRatio="none"
       xlink:href="entryObject0_down.png"
       id="image1-16"
       transform="rotate(0.0,87.70937,47.83667)"
       x="87.70937"
       y="47.83667"
 /><image
       width="29.3556078"
       height="10.3187973"
       preserveAspectRatio="none"
       xlink:href="roomTransitionObject_startingRoomToLobby.png"
       id="image1-17"
       transform="rotate(0.0,77.7875,28.38979)"
       x="77.7875"
       y="28.38979"
 /></g><g
     id="layer2"><image
       width="32.2791626"
       height="32.0145793"
       preserveAspectRatio="none"
       xlink:href="generalRoom_floorTile.png"
       id="image1-18"
       transform="rotate(0.0,116.44312,1.66687)"
       x="116.44312"
       y="1.66687"
 /><image
       width="32.2791626"
       height="32.0145793"
       preserveAspectRatio="none"
       xlink:href="generalRoom_floorTile.png"
       id="image1-19"
       transform="rotate(0.0,35.40125,33.78729)"
       x="35.40125"
       y="33.78729"
 /><image
       width="32.2791626"
       height="32.0145793"
       preserveAspectRatio="none"
       xlink:href="generalRoom_floorTile.png"
       id="image1-20"
       transform="rotate(0.0,99.43042,33.78729)"
       x="99.43042"
       y="33.78729"
 /><image
       width="32.2791626"
       height="32.0145793"
       preserveAspectRatio="none"
       xlink:href="generalRoom_floorTile.png"
       id="image1-21"
       transform="rotate(0.0,67.41583,33.78729)"
       x="67.41583"
       y="33.78729"
 /><image
       width="32.2791626"
       height="32.0145793"
       preserveAspectRatio="none"
       xlink:href="generalRoom_floorTile.png"
       id="image1-22"
       transform="rotate(0.0,52.14937,64.90229)"
       x="52.14937"
       y="64.90229"
 /><image
       width="32.2791626"
       height="32.0145793"
       preserveAspectRatio="none"
       xlink:href="generalRoom_floorTile.png"
       id="image1-23"
       transform="rotate(0.0,84.19042,64.90229)"
       x="84.19042"
       y="64.90229"
 /><image
       width="32.2791626"
       height="32.0145793"
       preserveAspectRatio="none"
       xlink:href="generalRoom_floorTile.png"
       id="image1-24"
       transform="rotate(0.0,116.17854,64.66417)"
       x="116.17854"
       y="64.66417"
 /><image
       width="32.2791626"
       height="32.0145793"
       preserveAspectRatio="none"
       xlink:href="generalRoom_floorTile.png"
       id="image1-25"
       transform="rotate(0.0,43.70917,96.91687)"
       x="43.70917"
       y="96.91687"
 /><image
       width="32.2791626"
       height="32.0145793"
       preserveAspectRatio="none"
       xlink:href="generalRoom_floorTile.png"
       id="image1-26"
       transform="rotate(0.0,75.69729,96.91687)"
       x="75.69729"
       y="96.91687"
 /><image
       width="32.2791626"
       height="32.0145793"
       preserveAspectRatio="none"
       xlink:href="generalRoom_floorTile.png"
       id="image1-27"
       transform="rotate(0.0,107.71187,96.65229)"
       x="107.71187"
       y="96.65229"
 /><image
       width="32.2791626"
       height="32.0145793"
       preserveAspectRatio="none"
       xlink:href="generalRoom_floorTile.png"
       id="image1-28"
       transform="rotate(0.0,51.64667,128.93146)"
       x="51.64667"
       y="128.93146"
 /><image
       width="32.2791626"
       height="32.0145793"
       preserveAspectRatio="none"
       xlink:href="generalRoom_floorTile.png"
       id="image1-29"
       transform="rotate(0.0,83.63479,128.66687)"
       x="83.63479"
       y="128.66687"
 /><image
       width="32.2791626"
       height="32.0145793"
       preserveAspectRatio="none"
       xlink:href="generalRoom_floorTile.png"
       id="image1-30"
       transform="rotate(0.0,115.64937,128.66687)"
       x="115.64937"
       y="128.66687"
 /><image
       width="32.2791626"
       height="32.0145793"
       preserveAspectRatio="none"
       xlink:href="generalRoom_floorTile.png"
       id="image1-31"
       transform="rotate(0.0,48.18062,160.41687)"
       x="48.18062"
       y="160.41687"
 /><image
       width="32.2791626"
       height="32.0145793"
       preserveAspectRatio="none"
       xlink:href="generalRoom_floorTile.png"
       id="image1-32"
       transform="rotate(0.0,80.22167,160.41687)"
       x="80.22167"
       y="160.41687"
 /><image
       width="32.2791626"
       height="32.0145793"
       preserveAspectRatio="none"
       xlink:href="generalRoom_floorTile.png"
       id="image1-33"
       transform="rotate(0.0,112.20979,160.41687)"
       x="112.20979"
       y="160.41687"
 /><image
       width="53.4458266"
       height="49.7416604"
       preserveAspectRatio="none"
       xlink:href="generalRoom_topWall.png"
       id="image1-34"
       transform="rotate(0.0,66.46333,0.66146)"
       x="66.46333"
       y="0.66146"
 /><image
       width="34.6604123"
       height="60.5895757"
       preserveAspectRatio="none"
       xlink:href="generalRoom_upperRightCorner.png"
       id="image1-35"
       transform="rotate(0.0,119.77687,0.55562)"
       x="119.77687"
       y="0.55562"
 /><image
       width="23.0187471"
       height="52.91666"
       preserveAspectRatio="none"
       xlink:href="generalRoom_sideWall.png"
       id="image1-36"
       transform="rotate(0.0,131.28625,61.01292)"
       x="131.28625"
       y="61.01292"
 /><image
       width="23.0187471"
       height="52.91666"
       preserveAspectRatio="none"
       xlink:href="generalRoom_sideWall.png"
       id="image1-37"
       transform="rotate(0.0,131.28625,113.92958)"
       x="131.28625"
       y="113.92958"
 /><image
       width="34.9249956"
       height="44.4499944"
       preserveAspectRatio="none"
       xlink:href="generalRoom_lowerRightCorner.png"
       id="image1-38"
       transform="rotate(0.0,119.43292,166.74042)"
       x="119.43292"
       y="166.74042"
 /><image
       width="53.4458266"
       height="18.7854143"
       preserveAspectRatio="none"
       xlink:href="generalRoom_bottomWall.png"
       id="image1-39"
       transform="rotate(0.0,66.33104,192.35208)"
       x="66.33104"
       y="192.35208"
 /><image
       width="34.9249956"
       height="44.4499944"
       preserveAspectRatio="none"
       xlink:href="generalRoom_lowerLeftCorner.png"
       id="image1-40"
       transform="rotate(0.0,31.72354,166.74042)"
       x="31.72354"
       y="166.74042"
 /><image
       width="34.9249956"
       height="60.854159"
       preserveAspectRatio="none"
       xlink:href="generalRoom_upperLeftCorner.png"
       id="image1-41"
       transform="rotate(0.0,31.72354,0.58208)"
       x="31.72354"
       y="0.58208"
 /><image
       width="23.0187471"
       height="52.91666"
       preserveAspectRatio="none"
       xlink:href="generalRoom_sideWall.png"
       id="image1-42"
       transform="rotate(0.0,54.68937,113.90312)"
       x="54.68937"
       y="113.90312"
 /><image
       width="23.0187471"
       height="52.91666"
       preserveAspectRatio="none"
       xlink:href="generalRoom_sideWall.png"
       id="image1-43"
       transform="rotate(0.0,54.68937,61.43625)"
       x="54.68937"
       y="61.43625"
 /><image
       width="26.194315"
       height="18.7922438"
       preserveAspectRatio="none"
       xlink:href="generalRoom_floorTile.png"
       id="image1-44"
       transform="rotate(0.0,78.39604,178.85833)"
       x="78.39604"
       y="178.85833"
 /><image
       width="36.2479121"
       height="10.0541654"
       preserveAspectRatio="none"
       xlink:href="generalRoom_bottomDoor.png"
       id="image1-45"
       transform="rotate(0.0,73.07792,190.76458)"
       x="73.07792"
       y="190.76458"
 /><image
       width="27.1488552"
       height="26.5702085"
       preserveAspectRatio="none"
       xlink:href="generalRoom_floorTile.png"
       id="image1-46"
       transform="rotate(0.0,78.63417,23.91833)"
       x="78.63417"
       y="23.91833"
 /><image
       width="36.2479121"
       height="38.3645785"
       preserveAspectRatio="none"
       xlink:href="generalRoom_lobby_topDoor.png"
       id="image1-47"
       transform="rotate(0.0,74.10979,14.10229)"
       x="74.10979"
       y="14.10229"
 /></g><g
     id="layer1"><image
       width="53.1812433"
       height="32.2791626"
       preserveAspectRatio="none"
       xlink:href="generalRoom_yellow_floorRunnerMid2.png"
       id="image1-48"
       transform="rotate(0.0,66.27812,81.33292)"
       x="66.27812"
       y="81.33292"
 /><image
       width="53.1812433"
       height="32.2791626"
       preserveAspectRatio="none"
       xlink:href="generalRoom_yellow_floorRunnerMid1.png"
       id="image1-49"
       transform="rotate(0.0,66.27812,113.21521)"
       x="66.27812"
       y="113.21521"
 /><image
       width="53.1812433"
       height="24.6062469"
       preserveAspectRatio="none"
       xlink:href="generalRoom_yellow_floorRunnerTop.png"
       id="image1-50"
       transform="rotate(180.0,119.45937,189.01833)"
       x="119.45937"
       y="189.01833"
 /><image
       width="52.6520767"
       height="1.0583332"
       preserveAspectRatio="none"
       xlink:href="generalRoom_yellow_floorRunner_rotationConnect.png"
       id="image1-51"
       transform="rotate(0.0,66.27812,163.40667)"
       x="66.27812"
       y="163.40667"
 /><image
       width="53.1812433"
       height="17.9787252"
       preserveAspectRatio="none"
       xlink:href="generalRoom_yellow_floorRunnerMid1.png"
       id="image1-52"
       transform="rotate(0.0,66.27812,145.415)"
       x="66.27812"
       y="145.415"
 /><image
       width="20.6374974"
       height="23.2833304"
       preserveAspectRatio="none"
       xlink:href="generalRoom_sideTorch_electric.png"
       id="image1-53"
       transform="rotate(0.0,131.57729,166.26417)"
       x="131.57729"
       y="166.26417"
 /><image
       width="20.6374974"
       height="23.2833304"
       preserveAspectRatio="none"
       xlink:href="generalRoom_sideTorch_electric.png"
       id="image1-54"
       transform="rotate(0.0,54.87458,166.26417)"
       x="54.87458"
       y="166.26417"
 /><image
       width="20.6374974"
       height="23.2833304"
       preserveAspectRatio="none"
       xlink:href="generalRoom_sideTorch_electric.png"
       id="image1-55"
       transform="rotate(0.0,131.31271,40.82521)"
       x="131.31271"
       y="40.82521"
 /><image
       width="20.6374974"
       height="23.2833304"
       preserveAspectRatio="none"
       xlink:href="generalRoom_sideTorch_electric.png"
       id="image1-56"
       transform="rotate(0.0,56.46208,40.82521)"
       x="56.46208"
       y="40.82521"
 /><image
       width="22.2249972"
       height="24.0770803"
       preserveAspectRatio="none"
       xlink:href="generalRoom_bottomTorch_electric.png"
       id="image1-57"
       transform="rotate(0.0,109.08771,187.90708)"
       x="109.08771"
       y="187.90708"
 /><image
       width="22.2249972"
       height="24.0770803"
       preserveAspectRatio="none"
       xlink:href="generalRoom_bottomTorch_electric.png"
       id="image1-58"
       transform="rotate(0.0,53.52521,187.90708)"
       x="53.52521"
       y="187.90708"
 /><image
       width="14.0229149"
       height="46.5666608"
       preserveAspectRatio="none"
       xlink:href="generalRoom_topPillar.png"
       id="image1-59"
       transform="rotate(0.0,112.76542,7.56708)"
       x="112.76542"
       y="7.56708"
 /><image
       width="14.0229149"
       height="46.5666608"
       preserveAspectRatio="none"
       xlink:href="generalRoom_topPillar.png"
       id="image1-60"
       transform="rotate(0.0,57.20292,7.56708)"
       x="57.20292"
       y="7.56708"
 /><image
       width="20.6374974"
       height="23.2833304"
       preserveAspectRatio="none"
       xlink:href="generalRoom_sideTorch_electric.png"
       id="image1-61"
       transform="rotate(0.0,131.57729,126.57667)"
       x="131.57729"
       y="126.57667"
 /><image
       width="12.9646275"
       height="35.7823719"
       preserveAspectRatio="none"
       xlink:href="generalRoom_sideWall_crack.png"
       id="image1-62"
       transform="rotate(0.0,47.49271,128.42875)"
       x="47.49271"
       y="128.42875"
 /><image
       width="20.6374974"
       height="23.2833304"
       preserveAspectRatio="none"
       xlink:href="generalRoom_sideTorch_electric.png"
       id="image1-63"
       transform="rotate(0.0,54.87458,126.57667)"
       x="54.87458"
       y="126.57667"
 /><image
       width="20.6374974"
       height="23.2833304"
       preserveAspectRatio="none"
       xlink:href="generalRoom_sideTorch_electric.png"
       id="image1-64"
       transform="rotate(0.0,54.87458,84.24333)"
       x="54.87458"
       y="84.24333"
 /><image
       width="19.8437475"
       height="54.7687431"
       preserveAspectRatio="none"
       xlink:href="generalRoom_sideWall_crack.png"
       id="image1-65"
       transform="rotate(0.0,132.23875,67.33646)"
       x="132.23875"
       y="67.33646"
 /><image
       width="31.749996"
       height="15.3458314"
       preserveAspectRatio="none"
       xlink:href="generalRoom_rocks1.png"
       id="image1-66"
       transform="rotate(0.0,55.35083,46.46083)"
       x="55.35083"
       y="46.46083"
 /><image
       width="22.279644"
       height="10.7684946"
       preserveAspectRatio="none"
       xlink:href="generalRoom_rocks1.png"
       id="image1-67"
       transform="rotate(0.0,130.57187,107.81771)"
       x="130.57187"
       y="107.81771"
 /><image
       width="23.0187471"
       height="20.3729141"
       preserveAspectRatio="none"
       xlink:href="generalRoom_rocks2.png"
       id="image1-68"
       transform="rotate(0.0,112.20979,108.55854)"
       x="112.20979"
       y="108.55854"
 /><image
       width="17.6377797"
       height="15.6104487"
       preserveAspectRatio="none"
       xlink:href="generalRoom_rocks2.png"
       id="image1-69"
       transform="rotate(0.0,72.31062,176.82104)"
       x="72.31062"
       y="176.82104"
 /></g></svg>