<?xml version="1.0" encoding="UTF-8" standalone="no"?>
<!-- Created with square_nine's Min Hero level editor (https://github.com/square-nine/min-hero-level-editor) -->

<svg
   width="185.2mm"
   height="210.63mm"
   viewBox="0 0 210 297"
   version="1.1"
   id="svg1"
   xml:space="preserve"
   xmlns:xlink="http://www.w3.org/1999/xlink"
   xmlns="http://www.w3.org/2000/svg"
   xmlns:svg="http://www.w3.org/2000/svg"><defs
     id="defs1" /><g
     id="layer3"><image
       width="26.45833"
       height="13.229165"
       preserveAspectRatio="none"
       xlink:href="collRect.png"
       id="image1-1"
       transform="rotate(0.0,158.82937,91.90302)"
       x="158.82937"
       y="91.90302"
 /><image
       width="26.45833"
       height="13.229165"
       preserveAspectRatio="none"
       xlink:href="collRect.png"
       id="image1-2"
       transform="rotate(0.0,0.0926,90.31552)"
       x="0.0926"
       y="90.31552"
 /><image
       width="8.69173258"
       height="146.04262578"
       preserveAspectRatio="none"
       xlink:href="collRect.png"
       id="image1-3"
       transform="rotate(0.0,131.31271,48.20708)"
       x="131.31271"
       y="48.20708"
 /><image
       width="8.69173258"
       height="146.04262578"
       preserveAspectRatio="none"
       xlink:href="collRect.png"
       id="image1-4"
       transform="rotate(0.0,45.60094,49.00083)"
       x="45.60094"
       y="49.00083"
 /><image
       width="30.42530312"
       height="13.229165"
       preserveAspectRatio="none"
       xlink:href="collRect.png"
       id="image1-5"
       transform="rotate(0.0,105.60844,37.16073)"
       x="105.60844"
       y="37.16073"
 /><image
       width="30.42530312"
       height="13.229165"
       preserveAspectRatio="none"
       xlink:href="collRect.png"
       id="image1-6"
       transform="rotate(0.0,48.9876,35.77167)"
       x="48.9876"
       y="35.77167"
 /><image
       width="30.42530312"
       height="13.229165"
       preserveAspectRatio="none"
       xlink:href="collRect.png"
       id="image1-7"
       transform="rotate(0.0,104.9999,192.14042)"
       x="104.9999"
       y="192.14042"
 /><image
       width="30.42530312"
       height="13.229165"
       preserveAspectRatio="none"
       xlink:href="collRect.png"
       id="image1-8"
       transform="rotate(0.0,48.37906,192.86802)"
       x="48.37906"
       y="192.86802"
 /><image
       width="12.78830049"
       height="13.229165"
       preserveAspectRatio="none"
       xlink:href="collRect.png"
       id="image1-9"
       transform="rotate(0.0,112.4876,40.44156)"
       x="112.4876"
       y="40.44156"
 /><image
       width="12.78830049"
       height="13.229165"
       preserveAspectRatio="none"
       xlink:href="collRect.png"
       id="image1-10"
       transform="rotate(0.0,57.28229,39.47583)"
       x="57.28229"
       y="39.47583"
 /><image
       width="28.55413608"
       height="8.40045518"
       preserveAspectRatio="none"
       xlink:href="roomTransitionObject1.png"
       id="image1-11"
       transform="rotate(0.0,77.23187,193.47656)"
       x="77.23187"
       y="193.47656"
 /><image
       width="10.583332"
       height="10.583332"
       preserveAspectRatio="none"
       xlink:href="entryObject1.png"
       id="image1-12"
       transform="rotate(0.0,85.9499,178.62021)"
       x="85.9499"
       y="178.62021"
 /><image
       width="28.88389224"
       height="3.98372759"
       preserveAspectRatio="none"
       xlink:href="collRect.png"
       id="image1-13"
       transform="rotate(0.0,54.41156,52.94312)"
       x="54.41156"
       y="52.94312"
 /><image
       width="14.86343197"
       height="6.89234329"
       preserveAspectRatio="none"
       xlink:href="collRect.png"
       id="image1-14"
       transform="rotate(0.0,116.80031,116.54896)"
       x="116.80031"
       y="116.54896"
 /><image
       width="20.41218818"
       height="3.45303492"
       preserveAspectRatio="none"
       xlink:href="collRect.png"
       id="image1-15"
       transform="rotate(0.0,110.88687,112.65958)"
       x="110.88687"
       y="112.65958"
 /><image
       width="11.96672607"
       height="6.36730273"
       preserveAspectRatio="none"
       xlink:href="collRect.png"
       id="image1-16"
       transform="rotate(0.0,57.00448,181.58354)"
       x="57.00448"
       y="181.58354"
 /><image
       width="10.583332"
       height="10.583332"
       preserveAspectRatio="none"
       xlink:href="entryObject0_down.png"
       id="image1-17"
       transform="rotate(0.0,87.70937,47.83667)"
       x="87.70937"
       y="47.83667"
 /><image
       width="29.35560918"
       height="10.31879715"
       preserveAspectRatio="none"
       xlink:href="roomTransitionObject_startingRoomToLobby.png"
       id="image1-18"
       transform="rotate(0.0,77.7875,28.38979)"
       x="77.7875"
       y="28.38979"
 /></g><g
     id="layer2"><image
       width="32.2791626"
       height="32.0145793"
       preserveAspectRatio="none"
       xlink:href="generalRoom_floorTile.png"
       id="image1-19"
       transform="rotate(0.0,84.44177,1.94469)"
       x="84.44177"
       y="1.94469"
 /><image
       width="32.2791626"
       height="32.0145793"
       preserveAspectRatio="none"
       xlink:href="generalRoom_floorTile.png"
       id="image1-20"
       transform="rotate(0.0,116.45635,1.6801)"
       x="116.45635"
       y="1.6801"
 /><image
       width="32.2791626"
       height="32.0145793"
       preserveAspectRatio="none"
       xlink:href="generalRoom_floorTile.png"
       id="image1-21"
       transform="rotate(0.0,35.40125,33.78729)"
       x="35.40125"
       y="33.78729"
 /><image
       width="32.2791626"
       height="32.0145793"
       preserveAspectRatio="none"
       xlink:href="generalRoom_floorTile.png"
       id="image1-22"
       transform="rotate(0.0,99.43042,33.78729)"
       x="99.43042"
       y="33.78729"
 /><image
       width="32.2791626"
       height="32.0145793"
       preserveAspectRatio="none"
       xlink:href="generalRoom_floorTile.png"
       id="image1-23"
       transform="rotate(0.0,67.41583,33.78729)"
       x="67.41583"
       y="33.78729"
 /><image
       width="32.2791626"
       height="32.0145793"
       preserveAspectRatio="none"
       xlink:href="generalRoom_floorTile.png"
       id="image1-24"
       transform="rotate(0.0,52.1626,64.91552)"
       x="52.1626"
       y="64.91552"
 /><image
       width="32.2791626"
       height="32.0145793"
       preserveAspectRatio="none"
       xlink:href="generalRoom_floorTile.png"
       id="image1-25"
       transform="rotate(0.0,84.17719,64.91552)"
       x="84.17719"
       y="64.91552"
 /><image
       width="32.2791626"
       height="32.0145793"
       preserveAspectRatio="none"
       xlink:href="generalRoom_floorTile.png"
       id="image1-26"
       transform="rotate(0.0,116.19177,64.65094)"
       x="116.19177"
       y="64.65094"
 /><image
       width="32.2791626"
       height="32.0145793"
       preserveAspectRatio="none"
       xlink:href="generalRoom_floorTile.png"
       id="image1-27"
       transform="rotate(0.0,43.69594,96.91687)"
       x="43.69594"
       y="96.91687"
 /><image
       width="32.2791626"
       height="32.0145793"
       preserveAspectRatio="none"
       xlink:href="generalRoom_floorTile.png"
       id="image1-28"
       transform="rotate(0.0,75.71052,96.91687)"
       x="75.71052"
       y="96.91687"
 /><image
       width="32.2791626"
       height="32.0145793"
       preserveAspectRatio="none"
       xlink:href="generalRoom_floorTile.png"
       id="image1-29"
       transform="rotate(0.0,107.7251,96.65229)"
       x="107.7251"
       y="96.65229"
 /><image
       width="32.2791626"
       height="32.0145793"
       preserveAspectRatio="none"
       xlink:href="generalRoom_floorTile.png"
       id="image1-30"
       transform="rotate(0.0,51.63344,128.93146)"
       x="51.63344"
       y="128.93146"
 /><image
       width="32.2791626"
       height="32.0145793"
       preserveAspectRatio="none"
       xlink:href="generalRoom_floorTile.png"
       id="image1-31"
       transform="rotate(0.0,83.64802,128.66687)"
       x="83.64802"
       y="128.66687"
 /><image
       width="32.2791626"
       height="32.0145793"
       preserveAspectRatio="none"
       xlink:href="generalRoom_floorTile.png"
       id="image1-32"
       transform="rotate(0.0,115.6626,128.66687)"
       x="115.6626"
       y="128.66687"
 /><image
       width="32.2791626"
       height="32.0145793"
       preserveAspectRatio="none"
       xlink:href="generalRoom_floorTile.png"
       id="image1-33"
       transform="rotate(0.0,48.19385,160.41687)"
       x="48.19385"
       y="160.41687"
 /><image
       width="32.2791626"
       height="32.0145793"
       preserveAspectRatio="none"
       xlink:href="generalRoom_floorTile.png"
       id="image1-34"
       transform="rotate(0.0,80.20844,160.41687)"
       x="80.20844"
       y="160.41687"
 /><image
       width="32.2791626"
       height="32.0145793"
       preserveAspectRatio="none"
       xlink:href="generalRoom_floorTile.png"
       id="image1-35"
       transform="rotate(0.0,112.22302,160.41687)"
       x="112.22302"
       y="160.41687"
 /><image
       width="53.4458266"
       height="49.7416604"
       preserveAspectRatio="none"
       xlink:href="generalRoom_topWall.png"
       id="image1-36"
       transform="rotate(0.0,66.46333,0.64823)"
       x="66.46333"
       y="0.64823"
 /><image
       width="34.6604123"
       height="60.5895757"
       preserveAspectRatio="none"
       xlink:href="generalRoom_upperRightCorner.png"
       id="image1-37"
       transform="rotate(0.0,119.77687,0.55562)"
       x="119.77687"
       y="0.55562"
 /><image
       width="23.0187471"
       height="52.91666"
       preserveAspectRatio="none"
       xlink:href="generalRoom_sideWall.png"
       id="image1-38"
       transform="rotate(0.0,131.28625,61.01292)"
       x="131.28625"
       y="61.01292"
 /><image
       width="23.0187471"
       height="52.91666"
       preserveAspectRatio="none"
       xlink:href="generalRoom_sideWall.png"
       id="image1-39"
       transform="rotate(0.0,131.28625,113.92958)"
       x="131.28625"
       y="113.92958"
 /><image
       width="34.9249956"
       height="44.4499944"
       preserveAspectRatio="none"
       xlink:href="generalRoom_lowerRightCorner.png"
       id="image1-40"
       transform="rotate(0.0,119.41969,166.74042)"
       x="119.41969"
       y="166.74042"
 /><image
       width="53.4458266"
       height="18.7854143"
       preserveAspectRatio="none"
       xlink:href="generalRoom_bottomWall.png"
       id="image1-41"
       transform="rotate(0.0,66.33104,192.36531)"
       x="66.33104"
       y="192.36531"
 /><image
       width="34.9249956"
       height="44.4499944"
       preserveAspectRatio="none"
       xlink:href="generalRoom_lowerLeftCorner.png"
       id="image1-42"
       transform="rotate(0.0,31.72354,166.74042)"
       x="31.72354"
       y="166.74042"
 /><image
       width="34.9249956"
       height="60.854159"
       preserveAspectRatio="none"
       xlink:href="generalRoom_upperLeftCorner.png"
       id="image1-43"
       transform="rotate(0.0,31.73677,0.58208)"
       x="31.73677"
       y="0.58208"
 /><image
       width="23.0187471"
       height="52.91666"
       preserveAspectRatio="none"
       xlink:href="generalRoom_sideWall.png"
       id="image1-44"
       transform="matrix(-1,0,0,1,109.37874,0) "
       x="54.68937"
       y="113.8899"
 /><image
       width="23.0187471"
       height="52.91666"
       preserveAspectRatio="none"
       xlink:href="generalRoom_sideWall.png"
       id="image1-45"
       transform="matrix(-1,0,0,1,109.37874,0) "
       x="54.68937"
       y="61.43625"
 /><image
       width="26.19431191"
       height="18.79224931"
       preserveAspectRatio="none"
       xlink:href="generalRoom_floorTile.png"
       id="image1-46"
       transform="rotate(0.0,78.39604,178.87156)"
       x="78.39604"
       y="178.87156"
 /><image
       width="36.2479121"
       height="10.0541654"
       preserveAspectRatio="none"
       xlink:href="generalRoom_bottomDoor.png"
       id="image1-47"
       transform="rotate(0.0,73.06469,190.77781)"
       x="73.06469"
       y="190.77781"
 /><image
       width="27.14885624"
       height="26.57020542"
       preserveAspectRatio="none"
       xlink:href="generalRoom_floorTile.png"
       id="image1-48"
       transform="rotate(0.0,78.62094,23.93156)"
       x="78.62094"
       y="23.93156"
 /><image
       width="36.2479121"
       height="38.3645785"
       preserveAspectRatio="none"
       xlink:href="generalRoom_lobby_topDoor.png"
       id="image1-49"
       transform="rotate(0.0,74.12302,14.11552)"
       x="74.12302"
       y="14.11552"
 /></g><g
     id="layer1"><image
       width="53.1812433"
       height="24.6062469"
       preserveAspectRatio="none"
       xlink:href="generalRoom_yellow_floorRunnerTop.png"
       id="image1-50"
       transform="rotate(0.0,66.2649,56.75312)"
       x="66.2649"
       y="56.75312"
 /><image
       width="53.1812433"
       height="32.2791626"
       preserveAspectRatio="none"
       xlink:href="generalRoom_yellow_floorRunnerMid2.png"
       id="image1-51"
       transform="rotate(0.0,66.2649,81.31969)"
       x="66.2649"
       y="81.31969"
 /><image
       width="53.1812433"
       height="32.2791626"
       preserveAspectRatio="none"
       xlink:href="generalRoom_yellow_floorRunnerMid1.png"
       id="image1-52"
       transform="rotate(0.0,66.2649,113.20198)"
       x="66.2649"
       y="113.20198"
 /><image
       width="53.1812433"
       height="24.6062469"
       preserveAspectRatio="none"
       xlink:href="generalRoom_yellow_floorRunnerTop.png"
       id="image1-53"
       transform="rotate(180.0,119.44615,189.03156)"
       x="119.44615"
       y="189.03156"
 /><image
       width="52.6520767"
       height="1.0583332"
       preserveAspectRatio="none"
       xlink:href="generalRoom_yellow_floorRunner_rotationConnect.png"
       id="image1-54"
       transform="rotate(0.0,66.29135,163.39344)"
       x="66.29135"
       y="163.39344"
 /><image
       width="53.1812433"
       height="17.97872914"
       preserveAspectRatio="none"
       xlink:href="generalRoom_yellow_floorRunnerMid1.png"
       id="image1-55"
       transform="rotate(0.0,66.29135,145.415)"
       x="66.29135"
       y="145.415"
 /><image
       width="20.6374974"
       height="23.2833304"
       preserveAspectRatio="none"
       xlink:href="generalRoom_sideTorch_electric.png"
       id="image1-56"
       transform="rotate(0.0,131.57729,166.25094)"
       x="131.57729"
       y="166.25094"
 /><image
       width="20.6374974"
       height="23.2833304"
       preserveAspectRatio="none"
       xlink:href="generalRoom_sideTorch_electric.png"
       id="image1-57"
       transform="matrix(-1,0,0,1,109.74916,0) "
       x="54.87458"
       y="166.26417"
 /><image
       width="20.6374974"
       height="23.2833304"
       preserveAspectRatio="none"
       xlink:href="generalRoom_sideTorch_electric.png"
       id="image1-58"
       transform="rotate(0.0,131.31271,40.82521)"
       x="131.31271"
       y="40.82521"
 /><image
       width="20.6374974"
       height="23.2833304"
       preserveAspectRatio="none"
       xlink:href="generalRoom_sideTorch_electric.png"
       id="image1-59"
       transform="matrix(-1,0,0,1,112.92416,0) "
       x="56.46208"
       y="40.82521"
 /><image
       width="22.2249972"
       height="24.0770803"
       preserveAspectRatio="none"
       xlink:href="generalRoom_bottomTorch_electric.png"
       id="image1-60"
       transform="rotate(0.0,109.08771,187.92031)"
       x="109.08771"
       y="187.92031"
 /><image
       width="22.2249972"
       height="24.0770803"
       preserveAspectRatio="none"
       xlink:href="generalRoom_bottomTorch_electric.png"
       id="image1-61"
       transform="rotate(0.0,53.52521,187.92031)"
       x="53.52521"
       y="187.92031"
 /><image
       width="14.0229149"
       height="46.5666608"
       preserveAspectRatio="none"
       xlink:href="generalRoom_topPillar.png"
       id="image1-62"
       transform="rotate(0.0,112.76542,7.56708)"
       x="112.76542"
       y="7.56708"
 /><image
       width="14.0229149"
       height="46.5666608"
       preserveAspectRatio="none"
       xlink:href="generalRoom_topPillar.png"
       id="image1-63"
       transform="rotate(0.0,57.20292,7.56708)"
       x="57.20292"
       y="7.56708"
 /><image
       width="20.6374974"
       height="23.2833304"
       preserveAspectRatio="none"
       xlink:href="generalRoom_sideTorch_electric.png"
       id="image1-64"
       transform="rotate(0.0,131.57729,126.56344)"
       x="131.57729"
       y="126.56344"
 /><image
       width="12.96462611"
       height="35.78236806"
       preserveAspectRatio="none"
       xlink:href="generalRoom_sideWall_crack.png"
       id="image1-65"
       transform="matrix(-1,0,0,1,94.98542,0) "
       x="47.49271"
       y="128.42875"
 /><image
       width="20.6374974"
       height="23.2833304"
       preserveAspectRatio="none"
       xlink:href="generalRoom_sideTorch_electric.png"
       id="image1-66"
       transform="matrix(-1,0,0,1,109.74916,0) "
       x="54.87458"
       y="126.57667"
 /><image
       width="20.6374974"
       height="23.2833304"
       preserveAspectRatio="none"
       xlink:href="generalRoom_sideTorch_electric.png"
       id="image1-67"
       transform="matrix(-1,0,0,1,109.74916,0) "
       x="54.87458"
       y="84.24333"
 /><image
       width="19.8437475"
       height="54.7687431"
       preserveAspectRatio="none"
       xlink:href="generalRoom_sideWall_crack.png"
       id="image1-68"
       transform="rotate(0.0,132.23875,67.33646)"
       x="132.23875"
       y="67.33646"
 /><image
       width="31.749996"
       height="15.3458314"
       preserveAspectRatio="none"
       xlink:href="generalRoom_rocks1.png"
       id="image1-69"
       transform="rotate(0.0,55.35083,46.46083)"
       x="55.35083"
       y="46.46083"
 /><image
       width="22.27964502"
       height="10.76849509"
       preserveAspectRatio="none"
       xlink:href="generalRoom_rocks1.png"
       id="image1-70"
       transform="matrix(-1,0,0,1,261.1702,0) "
       x="130.5851"
       y="107.81771"
 /><image
       width="23.0187471"
       height="20.3729141"
       preserveAspectRatio="none"
       xlink:href="generalRoom_rocks2.png"
       id="image1-71"
       transform="rotate(0.0,112.22302,108.55854)"
       x="112.22302"
       y="108.55854"
 /><image
       width="17.63777778"
       height="15.610447"
       preserveAspectRatio="none"
       xlink:href="generalRoom_rocks2.png"
       id="image1-72"
       transform="matrix(-1,0,0,1,144.6477,0) "
       x="72.32385"
       y="176.82104"
 /></g></svg>